<?xml version="1.0" encoding="utf-8"?>
<!-- Svg Vector Icons : http://www.onlinewebfonts.com/icon -->
<!DOCTYPE svg PUBLIC "-//W3C//DTD SVG 1.1//EN" "http://www.w3.org/Graphics/SVG/1.1/DTD/svg11.dtd">
<svg version="1.1" xmlns="http://www.w3.org/2000/svg" xmlns:xlink="http://www.w3.org/1999/xlink" x="0px" y="0px" viewBox="0 0 1000 1000" enable-background="new 0 0 1000 1000" xml:space="preserve">
<metadata> Svg Vector Icons : http://www.onlinewebfonts.com/icon </metadata>
<g><g transform="translate(0.000000,511.000000) scale(0.100000,-0.100000)"><path d="M4026.4,4998.9c-883.9-96.2-1674.1-726.9-1967.9-1570.3c-126.6-364.7-157-815.5-81-1185.3c73.4-359.6,157-486.3,316.6-486.3c73.4,0,108.9,17.7,159.6,78.5c78.5,93.7,81,121.6,12.7,314.1c-103.8,298.8-108.9,764.9-7.6,1101.7c116.5,397.6,430.6,807.9,780.1,1023.2c873.8,539.5,2059.1,291.3,2596-542c296.3-455.9,377.4-1056.1,217.8-1567.7c-48.1-149.4-58.2-215.3-40.5-263.4c50.7-131.7,233-187.4,349.5-106.4c73.4,53.2,177.3,379.9,210.2,663.6c50.6,455.9-68.4,985.2-319.1,1405.6c-157,265.9-514.1,628.1-769.9,785.1C5039.5,4925.5,4510.2,5049.6,4026.4,4998.9z"/><path d="M3950.4,4175.8c-547.1-121.6-1000.4-552.1-1167.6-1114.4c-91.2-303.9-35.5-876.3,93.7-980.2c73.4-63.3,227.9-58.3,296.3,5.1c78.5,73.4,88.6,144.4,43.1,316.6c-121.6,471.1,78.5,980.2,481.2,1215.7c164.6,98.8,400.2,146.9,633.2,134.2c478.7-30.4,818-291.3,954.8-737c53.2-174.8,53.2-341.9,5.1-734.5c-12.7-103.8-7.6-131.7,43.1-184.9c68.4-70.9,207.7-83.6,293.8-22.8c129.2,91.2,195,582.5,124.1,906.7c-68.4,306.5-195,529.3-430.6,764.9C4933.1,4130.2,4444.3,4284.7,3950.4,4175.8z"/><path d="M4006.2,3393.2c-222.9-81.1-420.4-288.7-488.8-514.2c-27.9-93.7-35.5-412.8-35.5-1595.6V-195.7l-55.7,20.3c-32.9,10.1-149.4,20.2-260.9,20.2c-174.8,0-217.8-10.1-319.1-68.4c-141.8-83.6-291.3-245.7-354.6-385c-43.1-96.2-48.1-184.9-48.1-1372.7c0-1180.2,2.5-1281.5,50.7-1463.9c157-618,640.8-1101.7,1284.1-1286.6c192.5-58.3,222.9-58.3,1476.6-58.3c1253.7,0,1284.1,0,1476.6,58.3c595.2,172.2,1035.9,585.1,1253.7,1175.2l68.4,184.9l7.6,1529.7c7.6,1732.4,12.7,1676.7-187.4,1899.5c-63.3,70.9-174.8,157-250.7,195c-121.5,58.3-162.1,65.9-321.6,55.7c-101.3-7.6-202.6-20.3-222.9-30.4c-30.4-12.7-48.1,7.6-73.5,78.5c-50.7,141.8-293.8,369.8-443.2,420.4c-149.4,50.7-347,53.2-476.1,7.6c-91.2-32.9-93.7-32.9-108.9,35.4c-40.5,190-311.5,445.8-531.9,506.5c-111.4,30.4-329.3,25.3-423-12.7c-43-17.7-45.6,27.9-45.6,739.6c0,623-7.6,780.1-40.5,876.3c-91.2,265.9-415.4,499-691.4,499C4165.7,3426.1,4059.4,3410.9,4006.2,3393.2z M4431.7,2932.2c111.4-73.4,119-172.2,114-1339.8c-2.5-597.7-5.1-1319.6-2.5-1603.2c2.5-509.1,2.5-514.2,65.8-574.9c76-78.5,210.2-83.6,293.8-15.2c60.8,48.1,60.8,53.2,73.5,711.7l12.7,663.6l70.9,60.8c101.3,86.1,314.1,86.1,415.4,0l70.9-60.8l12.7-650.9l12.7-650.9l70.9-60.8c98.8-83.6,205.1-78.5,298.9,12.7l73.4,73.5v331.8c0,179.8,10.1,357.1,25.3,392.6c35.5,96.3,134.3,146.9,278.6,146.9c243.1,0,324.2-124.1,291.3-458.4c-20.2-220.4-20.2-314,2.5-691.4c15.2-263.4,17.8-276.1,91.2-336.8c86.1-73.5,144.4-78.5,245.7-25.3c106.3,53.2,129.2,154.5,129.2,567.3c0,326.7,5.1,372.3,45.6,397.6c139.3,88.6,379.9,55.7,455.9-58.3c40.5-63.3,43-182.4,43-1527.2c0-1314.5-5.1-1471.5-45.6-1618.4c-131.7-481.2-496.4-820.6-995.4-927c-265.9-55.7-2388.3-55.7-2661.9,2.5c-483.7,98.8-828.2,412.9-985.2,896.6c-40.5,124.1-45.6,268.5-53.2,1367.7c-7.6,1137.2-5.1,1235.9,35.5,1317c81,159.6,331.8,192.5,481.2,63.3l70.9-58.3l12.7-668.6c12.7-678.8,25.3-754.7,116.5-790.2c50.7-20.3,172.2-20.3,225.4,0c116.5,45.6,114,7.6,114,2580.8v2423.8l73.4,73.4c65.8,63.3,93.7,73.4,217.8,73.4C4315.2,2972.7,4393.7,2957.5,4431.7,2932.2z"/></g></g>
</svg>